<svg xmlns="http://www.w3.org/2000/svg" xmlns:xlink="http://www.w3.org/1999/xlink" width="500" zoomAndPan="magnify" viewBox="0 0 375 374.999991" height="500" preserveAspectRatio="xMidYMid meet" version="1.0"><defs><clipPath id="fae20474f3"><path d="M 0 64 L 375 64 L 375 328.199219 L 0 328.199219 Z M 0 64 " clip-rule="nonzero"/></clipPath></defs><rect x="-37.5" width="450" fill="#ffffff" y="-37.499999" height="449.999989" fill-opacity="1"/><rect x="-37.5" width="450" fill="#f8f3ed" y="-37.499999" height="449.999989" fill-opacity="1"/><g clip-path="url(#fae20474f3)"><path fill="#798473" d="M 201.433594 315.1875 C 203.609375 317.980469 210.746094 321.707031 207.644531 328.222656 C 203.917969 322.945312 209.503906 325.429688 199.261719 317.050781 C 192.433594 308.980469 173.8125 260.871094 177.226562 300.601562 C 177.535156 305.253906 180.949219 323.566406 176.296875 326.050781 C 175.984375 326.050781 173.191406 306.808594 172.261719 304.324219 C 167.914062 288.183594 164.8125 280.734375 165.742188 263.355469 C 166.675781 245.042969 157.050781 260.871094 154.570312 268.011719 C 150.84375 280.117188 147.121094 277.941406 139.980469 289.425781 C 134.085938 289.738281 149.292969 274.839844 150.535156 270.183594 C 157.363281 242.558594 184.675781 242.871094 175.984375 200.96875 C 165.742188 151.3125 130.980469 182.660156 137.1875 203.453125 C 138.742188 208.417969 147.121094 219.59375 143.707031 224.25 C 136.566406 206.867188 138.742188 208.730469 122.910156 221.765625 C 111.425781 231.386719 90.632812 245.355469 115.460938 222.695312 C 139.359375 201.28125 116.703125 190.109375 150.535156 164.65625 C 162.328125 155.964844 172.261719 132.066406 178.46875 118.410156 C 188.089844 97.617188 177.226562 104.445312 157.671875 107.859375 C 109.253906 116.238281 141.84375 125.859375 127.257812 167.449219 C 125.085938 174.277344 131.914062 141.070312 127.566406 135.792969 C 122.601562 129.273438 114.222656 147.585938 108.945312 153.484375 C 93.425781 170.863281 93.738281 165.589844 82.253906 188.554688 C 75.113281 202.210938 81.320312 174.589844 96.53125 158.761719 C 113.910156 140.449219 111.117188 128.652344 123.53125 108.167969 C 133.464844 91.71875 75.734375 114.375 67.355469 131.757812 C 66.113281 134.242188 53.699219 166.210938 62.078125 140.757812 C 66.734375 126.792969 71.699219 115.929688 52.457031 113.445312 C 35.386719 111.273438 29.800781 131.449219 33.835938 114.6875 C 37.25 100.101562 3.417969 115.929688 0.00390625 112.515625 C 19.246094 98.238281 72.320312 108.480469 74.492188 106.929688 C 78.21875 103.824219 63.320312 92.652344 58.355469 90.789062 C 58.355469 90.789062 31.664062 84.269531 46.558594 85.824219 C 73.5625 88.925781 75.734375 104.753906 97.152344 95.445312 C 126.324219 82.71875 163.570312 97.925781 178.46875 79.304688 C 191.503906 63.164062 15.210938 78.996094 0.00390625 69.0625 C 71.699219 58.199219 374.003906 68.441406 375.242188 69.0625 C 341.414062 74.027344 216.644531 71.855469 211.988281 74.960938 C 205.160156 79.617188 220.679688 83.960938 225.023438 83.960938 C 255.128906 85.511719 252.027344 74.027344 284.613281 92.339844 C 317.203125 110.34375 333.03125 104.445312 365.3125 101.339844 C 378.347656 100.101562 333.652344 110.652344 333.03125 110.652344 C 324.652344 113.136719 293.925781 119.34375 314.722656 131.757812 C 323.101562 136.722656 319.375 132.066406 324.652344 142 C 333.964844 158.449219 305.101562 132.066406 304.789062 132.066406 C 293.304688 118.101562 295.167969 113.757812 276.234375 101.652344 C 245.820312 81.476562 263.511719 112.824219 268.476562 126.480469 C 271.578125 135.480469 288.648438 159.691406 284.304688 168.691406 C 280.890625 167.140625 264.75 116.550781 253.886719 139.828125 C 248.921875 150.378906 260.097656 124.308594 254.199219 113.445312 C 246.128906 97.925781 206.710938 91.097656 223.472656 128.652344 C 227.507812 138.277344 234.957031 144.792969 233.714844 156.277344 C 233.402344 155.964844 225.023438 140.136719 223.472656 138.277344 C 211.988281 124 217.574219 113.757812 212.609375 109.722656 C 207.023438 105.066406 179.398438 140.757812 206.710938 165.898438 C 219.125 177.382812 225.953125 175.832031 235.265625 190.726562 C 245.199219 206.867188 255.75 202.832031 261.957031 220.214844 C 261.957031 220.214844 253.886719 210.902344 252.648438 209.972656 C 238.679688 199.417969 241.472656 212.144531 229.058594 191.347656 C 218.507812 173.65625 204.847656 191.96875 228.75 226.421875 C 234.335938 234.800781 237.4375 243.179688 228.128906 230.457031 C 218.816406 217.421875 205.78125 196.9375 200.816406 223.9375 C 200.195312 228.902344 201.125 216.488281 203.296875 210.902344 C 210.4375 190.726562 209.816406 173.65625 189.019531 162.175781 C 176.605469 155.347656 187.777344 185.453125 188.710938 192.589844 C 194.917969 231.699219 170.707031 253.113281 174.433594 271.734375 C 176.605469 283.53125 191.191406 280.734375 193.367188 298.738281 C 193.988281 303.082031 195.847656 305.875 198.019531 309.910156 C 198.953125 311.773438 200.195312 313.636719 201.433594 315.1875 Z M 201.433594 315.1875 " fill-opacity="1" fill-rule="evenodd"/></g></svg>